M48
;Layer_Color=9474304
;FILE_FORMAT=2:5
INCH,LZ
;TYPE=PLATED
T1F00S00C0.01575
T2F00S00C0.02362
T3F00S00C0.12598
%
T01
X02465Y035
X02235Y0388
X0494
X0473Y035
T02
X024Y0368
Y0378
X025
Y0368
X026
Y0378
Y0388
Y0398
X025
Y0408
X024
Y0398
X026Y0408
X027
Y0398
Y0388
Y0378
Y0368
X028
Y0378
Y0388
Y0398
Y0408
X029
Y0398
Y0388
Y0378
Y0368
X03
Y0378
Y0388
Y0398
Y0408
X031
Y0398
Y0388
Y0378
Y0368
X032
Y0378
Y0388
Y0398
Y0408
X033
Y0398
Y0388
Y0378
Y0368
X034
Y0378
Y0388
Y0398
Y0408
X035
Y0398
Y0388
Y0378
Y0368
X036
Y0378
Y0388
Y0398
Y0408
X037
Y0398
Y0388
Y0378
Y0368
X038
Y0378
Y0388
Y0398
Y0408
X039
Y0398
Y0388
Y0378
Y0368
X04
Y0378
Y0388
Y0398
Y0408
X041
Y0398
Y0388
Y0378
Y0368
X042
Y0378
Y0388
Y0398
Y0408
X043
Y0398
Y0388
Y0378
Y0368
X044
Y0378
Y0388
Y0398
Y0408
X045
Y0398
Y0388
Y0378
Y0368
X046
Y0378
Y0388
Y0398
Y0408
X047
X048
Y0398
X047
Y0378
X048
Y0368
X047
T03
X0246811Y0388
X0473189
M30
