M48
;Layer_Color=9474304
;FILE_FORMAT=2:5
INCH,LZ
;TYPE=PLATED
T1F00S00C0.02362
T2F00S00C0.03543
T3F00S00C0.03937
T4F00S00C0.05512
T5F00S00C0.10236
T6F00S00C0.12598
%
T01
X0329Y0010591
X03425Y00275
X03505
X0354Y00185
X03625Y00145
X03705
X0379
X03865
X04055
X0415
X04105Y0044
X04195
X0415Y00535
X0426
X0439Y00555
X0446Y00615
X04525Y00685
X04565Y00965
Y0108
X04235
Y00965
X04115Y0082
X04025Y008
X038Y00785
X03705Y00715
X0364Y0065
X03295Y0070591
X03325Y0138091
X0404Y00535
X04365Y00285
X0309Y0034091
X03005
X02925
X0276Y0034591
Y002459
Y0014591
X0266
Y002459
Y0034591
X0256
X0246
Y002459
X0236
Y0014591
X0246
X0236Y0034591
Y0044591
X0246
X0256
X0266
X0276
Y005459
X0266
X0256
X0246
X0236
Y0064591
X0246
X0256
X0266
X0276
Y007459
X0266
X0256
X0246
X0236
Y0084591
X0246
X0256
X0266
X0276
Y0094591
X0266
X0256
X0246
X0236
Y0104591
X0246
X0256
X0266
X0276
Y0114591
X0266
X0256
X0246
X0236
Y0124591
X0246
X0256
X0266
X0276
Y0134591
X0266
X0256
X0246
X0236
Y0144591
X0246
X0256
X0266
X0276
X03095Y0138091
X032
X03005Y0125091
X03065Y008159
X0309Y006159
X03005Y006209
X02925
X032Y0070091
X0319Y0010591
X0276Y0154591
X0266
X0256
X0246
X0236
Y0164591
X0246
X0256
X0266
X0276
Y0174591
X0266
X0256
X0246
X0236
Y0184591
X0246
X0256
X0266
X0276
Y0194591
X0266
X0256
X0246
X0236
Y0204591
X0246
X0256
X0266
X0276
Y0214591
X0266
X0256
X0246
X0236
Y022459
X0246
X0256
X0266
X0276
Y0234591
Y024459
Y0254591
X0266
Y024459
Y0234591
X0256
X0246
Y024459
Y0254591
X0236
Y024459
Y0234591
X03205Y0203
X0331
X0349Y0218
T02
X03895Y0138591
X03995
X0403Y0208
X0413
T03
X0401839Y0166894
X0401839Y0166894
Y0167681
Y0168468
Y0169256
Y0170043
Y0170831
Y0171618
Y0172406
Y0173193
Y017398
Y0174768
Y0175555
Y0176736
X04105Y01915
X0411287
X0412075
X0412862
X041365
X0414437
X0415224
X0416012
X0416799
X0417587
X0418374
X0426248Y0175752
Y0174965
Y0174177
Y017339
Y0172602
Y0171815
Y0171028
Y017024
Y0169453
Y0168665
Y0167878
T04
X0412508Y0028508
X044Y0103
X03255Y02175
T05
X03955Y00115
Y0045516
X0429516
Y00115
X0422992Y0085992
Y0120008
X0457008
Y0085992
X0308492Y0200492
Y0234508
X0342508
Y0200492
T06
X0256Y0021402
Y0247779
M30
