M48
;Layer_Color=9474304
;FILE_FORMAT=2:5
INCH,LZ
;TYPE=PLATED
T1F00S00C0.02362
T2F00S00C0.03543
T3F00S00C0.03937
T4F00S00C0.12598
%
T01
X0005Y002
Y0053
X00165
X00315
X004
X0035Y0017
Y00075
X00165Y002
X00685Y0017
Y00075
Y00305
X00845Y0082
X0084Y00915
X00755Y01025
X0076Y0111
Y0119
X00785Y01355
X00685
X00585
X00485
X00385
X00285
X0048Y0119
Y0111
Y01025
X00245Y00925
Y00825
X00955Y0105
X00985Y01355
X00885
X01085
X01185
X01285
X01385
X01485
X01585
X01685
X0152Y0102
Y00915
Y0079
X0139Y0111
X01785Y01355
X01885
X01985
X02085
X02185
X02285
X02385
X02485
X02585
X02685
X02635Y01095
X0255
X02465
X0246Y01175
Y01245
X02175Y0125
Y0107
Y0098
X02205Y00885
X02285Y00825
X02385Y00805
X0237Y00695
X02245
X0214
X02515Y00755
X0263Y0076
X02745
X0285
Y01095
X02745
X02685Y01455
X02585
X02485
X02385
X02285
X02185
X02085
X01985
X01885
X01785
Y01555
Y01655
Y01755
X01885
Y01655
Y01555
X01985
Y01655
Y01755
X02085
Y01655
Y01555
X02185
Y01655
Y01755
X02285
Y01655
Y01555
X02385
Y01655
Y01755
X02485
X02585
X02685
Y01655
X02585
X02485
Y01555
X01685
X01585
X01485
X01385
X01285
X01185
X01085
X00985
X00885
X00785
X00685
X00585
X00485
Y01655
X00385
Y01755
X00285
Y01655
Y01455
X00385
X00485
X00585
X00685
X00785
X00885
X00985
X01085
X01185
X01285
X01385
X01485
X01585
X01685
Y01655
X01585
X01485
X01385
X01285
X01185
X01085
X00985
X00885
X00785
X00685
X00585
Y01755
X00485
X00685
X00785
X00885
X00985
X01085
X01185
X01285
X01385
X01485
X01585
X01685
T02
X01525Y0012
Y0022
T03
X0235063Y0030528
X023585
X0236638
X0237425
X0238213
X0239
X0239787
X0240575
X0241362
X024215
X0242937
X0258685Y0038402
Y0039189
Y0039976
Y0040764
Y0041551
Y0042339
Y0043126
Y0043913
Y0044701
Y0045488
Y0046276
X0243921Y0054937
X024274
X0241953
X0241165
X0240378
X0239591
X0238803
X0238016
X0237228
X0236441
X0235653
X0234866
X0234079
X0234079Y0054937
T04
X0261689Y01555
X0035311
M30
